ffmpeg version 4.3.1 Copyright (c) 2000-2020 the FFmpeg developers
  built with Apple clang version 11.0.3 (clang-1103.0.32.59)
  configuration: --prefix=/usr/local/Cellar/ffmpeg/4.3.1-with-options_7 --enable-shared --cc=clang --host-cflags= --host-ldflags= --enable-gpl --enable-libaom --enable-libdav1d --enable-libmp3lame --enable-libopus --enable-libsnappy --enable-libtheora --enable-libvorbis --enable-libvpx --enable-libx264 --enable-libx265 --enable-libfontconfig --enable-libfreetype --enable-frei0r --enable-libass --enable-demuxer=dash --disable-libjack --disable-indev=jack --enable-opencl --enable-videotoolbox --disable-htmlpages
  libavutil      56. 51.100 / 56. 51.100
  libavcodec     58. 91.100 / 58. 91.100
  libavformat    58. 45.100 / 58. 45.100
  libavdevice    58. 10.100 / 58. 10.100
  libavfilter     7. 85.100 /  7. 85.100
  libswscale      5.  7.100 /  5.  7.100
  libswresample   3.  7.100 /  3.  7.100
  libpostproc    55.  7.100 / 55.  7.100
Splitting the commandline.
Reading option '-v' ... matched as option 'v' (set logging level) with argument 'debug'.
Reading option '-nostdin' ... matched as option 'stdin' (enable or disable interaction on standard input) with argument 0.
Reading option '-progress' ... matched as option 'progress' (write program-readable progress information) with argument '/private/var/folders/y5/z_30clw15xq0rc5gwrv90j2m0000gn/T/KritaFFmpegProgress.VyCglc'.
Reading option '-r' ... matched as option 'r' (set frame rate (Hz value, fraction or abbreviation)) with argument '24'.
Reading option '-start_number' ... matched as AVOption 'start_number' with argument '0'.
Reading option '-i' ... matched as input url with argument '/Users/rgelpi/Documents/JavaScript/webBlicket/public/eeblicket/img/new_stimuli/frame%04d.png'.
Reading option '-i' ... matched as input url with argument '/Users/rgelpi/Documents/JavaScript/webBlicket/public/eeblicket/img/new_stimuli/palette.png'.
Reading option '-lavfi' ... matched as option 'lavfi' (create a complex filtergraph) with argument 'scale=w=800:h=254[0:v];[0:v][1:v] paletteuse'.
Reading option '-y' ... matched as option 'y' (overwrite output files) with argument '1'.
Reading option '/Users/rgelpi/Documents/JavaScript/webBlicket/public/eeblicket/img/new_stimuli/true.gif' ... matched as output url.
Finished splitting the commandline.
Parsing a group of options: global .
Applying option v (set logging level) with argument debug.
Applying option nostdin (enable or disable interaction on standard input) with argument 0.
Applying option progress (write program-readable progress information) with argument /private/var/folders/y5/z_30clw15xq0rc5gwrv90j2m0000gn/T/KritaFFmpegProgress.VyCglc.
[file @ 0x7fdf03f06b80] Setting default whitelist 'file,crypto,data'
Applying option lavfi (create a complex filtergraph) with argument scale=w=800:h=254[0:v];[0:v][1:v] paletteuse.
Applying option y (overwrite output files) with argument 1.
Successfully parsed a group of options.
Parsing a group of options: input url /Users/rgelpi/Documents/JavaScript/webBlicket/public/eeblicket/img/new_stimuli/frame%04d.png.
Applying option r (set frame rate (Hz value, fraction or abbreviation)) with argument 24.
Successfully parsed a group of options.
Opening an input file: /Users/rgelpi/Documents/JavaScript/webBlicket/public/eeblicket/img/new_stimuli/frame%04d.png.
[image2 @ 0x7fdf05808200] Opening '/Users/rgelpi/Documents/JavaScript/webBlicket/public/eeblicket/img/new_stimuli/frame0000.png' for reading
[file @ 0x7fdf03d0de00] Setting default whitelist 'file,crypto,data'
[AVIOContext @ 0x7fdf03f07640] Statistics: 65314 bytes read, 0 seeks
[image2 @ 0x7fdf05808200] Opening '/Users/rgelpi/Documents/JavaScript/webBlicket/public/eeblicket/img/new_stimuli/frame0001.png' for reading
[file @ 0x7fdf03f076c0] Setting default whitelist 'file,crypto,data'
[AVIOContext @ 0x7fdf03f077c0] Statistics: 65314 bytes read, 0 seeks
[image2 @ 0x7fdf05808200] Opening '/Users/rgelpi/Documents/JavaScript/webBlicket/public/eeblicket/img/new_stimuli/frame0002.png' for reading
[file @ 0x7fdf03f07800] Setting default whitelist 'file,crypto,data'
[AVIOContext @ 0x7fdf03e092c0] Statistics: 65314 bytes read, 0 seeks
[image2 @ 0x7fdf05808200] Opening '/Users/rgelpi/Documents/JavaScript/webBlicket/public/eeblicket/img/new_stimuli/frame0003.png' for reading
[file @ 0x7fdf03e09280] Setting default whitelist 'file,crypto,data'
[AVIOContext @ 0x7fdf03e094c0] Statistics: 65314 bytes read, 0 seeks
[image2 @ 0x7fdf05808200] Opening '/Users/rgelpi/Documents/JavaScript/webBlicket/public/eeblicket/img/new_stimuli/frame0004.png' for reading
[file @ 0x7fdf03f07800] Setting default whitelist 'file,crypto,data'
[AVIOContext @ 0x7fdf03f07d40] Statistics: 65314 bytes read, 0 seeks
[image2 @ 0x7fdf05808200] Opening '/Users/rgelpi/Documents/JavaScript/webBlicket/public/eeblicket/img/new_stimuli/frame0005.png' for reading
[file @ 0x7fdf03e094c0] Setting default whitelist 'file,crypto,data'
[AVIOContext @ 0x7fdf03e09740] Statistics: 65314 bytes read, 0 seeks
[image2 @ 0x7fdf05808200] Opening '/Users/rgelpi/Documents/JavaScript/webBlicket/public/eeblicket/img/new_stimuli/frame0006.png' for reading
[file @ 0x7fdf03c05740] Setting default whitelist 'file,crypto,data'
[AVIOContext @ 0x7fdf03f07d00] Statistics: 65314 bytes read, 0 seeks
[image2 @ 0x7fdf05808200] Opening '/Users/rgelpi/Documents/JavaScript/webBlicket/public/eeblicket/img/new_stimuli/frame0007.png' for reading
[file @ 0x7fdf03e09700] Setting default whitelist 'file,crypto,data'
[AVIOContext @ 0x7fdf03e097c0] Statistics: 65300 bytes read, 0 seeks
[image2 @ 0x7fdf05808200] Opening '/Users/rgelpi/Documents/JavaScript/webBlicket/public/eeblicket/img/new_stimuli/frame0008.png' for reading
[file @ 0x7fdf03e097c0] Setting default whitelist 'file,crypto,data'
[AVIOContext @ 0x7fdf03e09880] Statistics: 65300 bytes read, 0 seeks
[image2 @ 0x7fdf05808200] Opening '/Users/rgelpi/Documents/JavaScript/webBlicket/public/eeblicket/img/new_stimuli/frame0009.png' for reading
[file @ 0x7fdf03e09880] Setting default whitelist 'file,crypto,data'
[AVIOContext @ 0x7fdf03e09980] Statistics: 65300 bytes read, 0 seeks
[image2 @ 0x7fdf05808200] Opening '/Users/rgelpi/Documents/JavaScript/webBlicket/public/eeblicket/img/new_stimuli/frame0010.png' for reading
[file @ 0x7fdf03c05880] Setting default whitelist 'file,crypto,data'
[AVIOContext @ 0x7fdf03c05940] Statistics: 65300 bytes read, 0 seeks
[image2 @ 0x7fdf05808200] Opening '/Users/rgelpi/Documents/JavaScript/webBlicket/public/eeblicket/img/new_stimuli/frame0011.png' for reading
[file @ 0x7fdf03c05ac0] Setting default whitelist 'file,crypto,data'
[AVIOContext @ 0x7fdf03c05b80] Statistics: 65300 bytes read, 0 seeks
[image2 @ 0x7fdf05808200] Opening '/Users/rgelpi/Documents/JavaScript/webBlicket/public/eeblicket/img/new_stimuli/frame0012.png' for reading
[file @ 0x7fdf03f07d00] Setting default whitelist 'file,crypto,data'
[AVIOContext @ 0x7fdf03f07f40] Statistics: 65300 bytes read, 0 seeks
Input #0, image2, from '/Users/rgelpi/Documents/JavaScript/webBlicket/public/eeblicket/img/new_stimuli/frame%04d.png':
  Duration: 00:00:00.52, start: 0.000000, bitrate: N/A
    Stream #0:0, 13, 1/25: Video: png, 1 reference frame, rgba(pc), 800x253 [SAR 2835:2835 DAR 800:253], 0/1, 25 fps, 25 tbr, 25 tbn, 25 tbc
Successfully opened the file.
Parsing a group of options: input url /Users/rgelpi/Documents/JavaScript/webBlicket/public/eeblicket/img/new_stimuli/palette.png.
Successfully parsed a group of options.
Opening an input file: /Users/rgelpi/Documents/JavaScript/webBlicket/public/eeblicket/img/new_stimuli/palette.png.
[NULL @ 0x7fdf05011c00] Opening '/Users/rgelpi/Documents/JavaScript/webBlicket/public/eeblicket/img/new_stimuli/palette.png' for reading
[file @ 0x7fdf03e09d40] Setting default whitelist 'file,crypto,data'
[png_pipe @ 0x7fdf05011c00] Format png_pipe probed with size=2048 and score=99
[png_pipe @ 0x7fdf05011c00] Before avformat_find_stream_info() pos: 0 bytes read:993 seeks:0 nb_streams:1
[png_pipe @ 0x7fdf05011c00] After avformat_find_stream_info() pos: 993 bytes read:993 seeks:0 frames:1
Input #1, png_pipe, from '/Users/rgelpi/Documents/JavaScript/webBlicket/public/eeblicket/img/new_stimuli/palette.png':
  Duration: N/A, bitrate: N/A
    Stream #1:0, 1, 1/25: Video: png, 1 reference frame, rgba(pc), 16x16 [SAR 1:1 DAR 1:1], 0/1, 25 tbr, 25 tbn, 25 tbc
Successfully opened the file.
[Parsed_scale_0 @ 0x7fdf03f07080] Setting 'w' to value '800'
[Parsed_scale_0 @ 0x7fdf03f07080] Setting 'h' to value '254'
[Parsed_scale_0 @ 0x7fdf03f07080] w:800 h:254 flags:'bilinear' interl:0
Parsing a group of options: output url /Users/rgelpi/Documents/JavaScript/webBlicket/public/eeblicket/img/new_stimuli/true.gif.
Successfully parsed a group of options.
Opening an output file: /Users/rgelpi/Documents/JavaScript/webBlicket/public/eeblicket/img/new_stimuli/true.gif.
[file @ 0x7fdf03e0af80] Setting default whitelist 'file,crypto,data'
Successfully opened the file.
detected 4 logical cores
Stream mapping:
  Stream #0:0 (png) -> scale
  Stream #1:0 (png) -> paletteuse:palette
  paletteuse -> Stream #0:0 (gif)
cur_dts is invalid st:0 (0) [init:0 i_done:0 finish:0] (this is harmless if it occurs once at the start per stream)
[image2 @ 0x7fdf05808200] Thread message queue blocking; consider raising the thread_queue_size option (current value: 8)
cur_dts is invalid st:0 (0) [init:0 i_done:0 finish:0] (this is harmless if it occurs once at the start per stream)
    Last message repeated 5 times
[Parsed_scale_0 @ 0x7fdf03f0ecc0] Setting 'w' to value '800'
[Parsed_scale_0 @ 0x7fdf03f0ecc0] Setting 'h' to value '254'
[Parsed_scale_0 @ 0x7fdf03f0ecc0] w:800 h:254 flags:'bilinear' interl:0
[graph 0 input from stream 0:0 @ 0x7fdf03c07340] Setting 'video_size' to value '800x253'
[graph 0 input from stream 0:0 @ 0x7fdf03c07340] Setting 'pix_fmt' to value '26'
[graph 0 input from stream 0:0 @ 0x7fdf03c07340] Setting 'time_base' to value '1/24'
[graph 0 input from stream 0:0 @ 0x7fdf03c07340] Setting 'pixel_aspect' to value '2835/2835'
[graph 0 input from stream 0:0 @ 0x7fdf03c07340] Setting 'frame_rate' to value '24/1'
[graph 0 input from stream 0:0 @ 0x7fdf03c07340] w:800 h:253 pixfmt:rgba tb:1/24 fr:24/1 sar:2835/2835
[graph 0 input from stream 1:0 @ 0x7fdf03c07700] Setting 'video_size' to value '16x16'
[graph 0 input from stream 1:0 @ 0x7fdf03c07700] Setting 'pix_fmt' to value '26'
[graph 0 input from stream 1:0 @ 0x7fdf03c07700] Setting 'time_base' to value '1/25'
[graph 0 input from stream 1:0 @ 0x7fdf03c07700] Setting 'pixel_aspect' to value '1/1'
[graph 0 input from stream 1:0 @ 0x7fdf03c07700] Setting 'frame_rate' to value '25/1'
[graph 0 input from stream 1:0 @ 0x7fdf03c07700] w:16 h:16 pixfmt:rgba tb:1/25 fr:25/1 sar:1/1
[format @ 0x7fdf03c07c80] Setting 'pix_fmts' to value 'rgb8|bgr8|rgb4_byte|bgr4_byte|gray|pal8'
[auto_scaler_0 @ 0x7fdf03c08240] w:iw h:ih flags:'bilinear' interl:0
[Parsed_paletteuse_1 @ 0x7fdf03c06a00] auto-inserting filter 'auto_scaler_0' between the filter 'graph 0 input from stream 1:0' and the filter 'Parsed_paletteuse_1'
[AVFilterGraph @ 0x7fdf03d0e280] query_formats: 6 queried, 4 merged, 1 already done, 0 delayed
[swscaler @ 0x7fdf065c7000] Forcing full internal H chroma due to input having non subsampled chroma
[Parsed_scale_0 @ 0x7fdf03f0ecc0] w:800 h:253 fmt:rgba sar:2835/2835 -> w:800 h:254 fmt:bgra sar:254/253 flags:0x2
[swscaler @ 0x7fdf065d4000] Forcing full internal H chroma due to input having non subsampled chroma
[auto_scaler_0 @ 0x7fdf03c08240] w:16 h:16 fmt:rgba sar:1/1 -> w:16 h:16 fmt:bgra sar:1/1 flags:0x2
[Parsed_paletteuse_1 @ 0x7fdf03c06a00] [framesync @ 0x7fdf06545008] Selected 1/600 time base
[Parsed_paletteuse_1 @ 0x7fdf03c06a00] [framesync @ 0x7fdf06545008] Sync level 2
Output #0, gif, to '/Users/rgelpi/Documents/JavaScript/webBlicket/public/eeblicket/img/new_stimuli/true.gif':
  Metadata:
    encoder         : Lavf58.45.100
    Stream #0:0, 0, 1/100: Video: gif, 1 reference frame, pal8, 800x254 [SAR 254:253 DAR 800:253], 0/1, q=2-31, 200 kb/s, 24 fps, 100 tbn, 24 tbc (default)
    Metadata:
      encoder         : Lavc58.91.100 gif
Clipping frame in rate conversion by 0.000008
[gif @ 0x7fdf05029e00] 1x1 image at pos (799;253) [area:800x254]
    Last message repeated 5 times
[gif @ 0x7fdf05029e00] 46x124 image at pos (70;120) [area:800x254]
[gif @ 0x7fdf05029e00] 1x1 image at pos (799;253) [area:800x254]
    Last message repeated 2 times
frame=   11 fps=0.0 q=-0.0 size=      37kB time=00:00:00.43 bitrate= 709.4kbits/s speed=0.633x    [gif @ 0x7fdf05029e00] 1x1 image at pos (799;253) [area:800x254]
    Last message repeated 1 times
[Parsed_paletteuse_1 @ 0x7fdf03c06a00] [framesync @ 0x7fdf06545008] Sync level 0
[out_0_0 @ 0x7fdf03c07b00] EOF on sink link out_0_0:default.
No more output streams to write to, finishing.
frame=   13 fps=0.0 q=-0.0 Lsize=      37kB time=00:00:00.51 bitrate= 599.3kbits/s speed=0.698x    
[AVIOContext @ 0x7fdf03f06d00] Statistics: 0 seeks, 2 writeouts
video:37kB audio:0kB subtitle:0kB other streams:0kB global headers:0kB muxing overhead: 0.052372%
Input file #0 (/Users/rgelpi/Documents/JavaScript/webBlicket/public/eeblicket/img/new_stimuli/frame%04d.png):
  Input stream #0:0 (video): 13 packets read (848998 bytes); 13 frames decoded; 
  Total: 13 packets (848998 bytes) demuxed
Input file #1 (/Users/rgelpi/Documents/JavaScript/webBlicket/public/eeblicket/img/new_stimuli/palette.png):
  Input stream #1:0 (video): 1 packets read (993 bytes); 1 frames decoded; 
  Total: 1 packets (993 bytes) demuxed
Output file #0 (/Users/rgelpi/Documents/JavaScript/webBlicket/public/eeblicket/img/new_stimuli/true.gif):
  Output stream #0:0 (video): 13 frames encoded; 13 packets muxed (38188 bytes); 
  Total: 13 packets (38188 bytes) muxed
14 frames successfully decoded, 0 decoding errors
[AVIOContext @ 0x7fdf03e0b080] Statistics: 0 seeks, 1 writeouts
[AVIOContext @ 0x7fdf03e09ec0] Statistics: 993 bytes read, 0 seeks
